# xmcd
#
# Track frame offsets:
# 150
# 13034
# 26275
# 38440
# 53897
# 66836
# 80433
# 94636
# 107438
# 119106
#
# Disc length: 1784 seconds
#
#
# Revision: 0
# Processed by: cddbd v1.5.1PL2 Copyright (c) Steve Scherf et al.
# Submitted via: FreeRIP 2.944 
#
DISCID=7306f60a
DTITLE=Ronnie McDowell - Older Women and Other Greatest Hits
DYEAR=1987
DGENRE=Country
TTITLE0=Older Women
TTITLE1=Wandering Eyes
TTITLE2=Watchin' Girls Go By
TTITLE3=Personally
TTITLE4=You're Gonna Ruin My Bad Reputation
TTITLE5=You Made a Wanted Man of Me
TTITLE6=I Dream Of Women Like You
TTITLE7=I Got a Million of 'Em
TTITLE8=In a New York Minute
TTITLE9=Love Talks
EXTD=
EXTT0=
EXTT1=
EXTT2=
EXTT3=
EXTT4=
EXTT5=
EXTT6=
EXTT7=
EXTT8=
EXTT9=
PLAYORDER=
